<mxfile host="app.diagrams.net" modified="2023-04-05T15:21:29.423Z" agent="Mozilla/5.0 (Windows NT 10.0; Win64; x64) AppleWebKit/537.36 (KHTML, like Gecko) Chrome/111.0.0.0 Safari/537.36" etag="qrH4GCCupNBlGfcRaJzh" version="21.1.2" type="github">
  <diagram name="Page-1" id="-QaDXSLP0wun7r5StYWX">
    <mxGraphModel dx="1434" dy="796" grid="1" gridSize="10" guides="1" tooltips="1" connect="1" arrows="1" fold="1" page="1" pageScale="1" pageWidth="827" pageHeight="1169" math="0" shadow="0">
      <root>
        <mxCell id="0" />
        <mxCell id="1" parent="0" />
        <mxCell id="6m7SIc87kaRz1HZ6iZ1g-1" value="USER" style="shape=umlActor;verticalLabelPosition=bottom;verticalAlign=top;html=1;outlineConnect=0;" vertex="1" parent="1">
          <mxGeometry x="320" y="250" width="30" height="60" as="geometry" />
        </mxCell>
        <mxCell id="6m7SIc87kaRz1HZ6iZ1g-2" value="" style="endArrow=none;html=1;rounded=0;" edge="1" parent="1">
          <mxGeometry width="50" height="50" relative="1" as="geometry">
            <mxPoint x="350" y="280" as="sourcePoint" />
            <mxPoint x="400" y="230" as="targetPoint" />
          </mxGeometry>
        </mxCell>
        <mxCell id="6m7SIc87kaRz1HZ6iZ1g-3" value="Google login" style="ellipse;whiteSpace=wrap;html=1;" vertex="1" parent="1">
          <mxGeometry x="390" y="170" width="120" height="80" as="geometry" />
        </mxCell>
        <mxCell id="6m7SIc87kaRz1HZ6iZ1g-4" value="Add Additional Informations for AppUser&lt;br&gt;UserType : Employee or Farmer&lt;br&gt;" style="ellipse;whiteSpace=wrap;html=1;" vertex="1" parent="1">
          <mxGeometry x="570" y="70" width="250" height="80" as="geometry" />
        </mxCell>
        <mxCell id="6m7SIc87kaRz1HZ6iZ1g-5" value="" style="endArrow=none;html=1;rounded=0;" edge="1" parent="1" target="6m7SIc87kaRz1HZ6iZ1g-4">
          <mxGeometry width="50" height="50" relative="1" as="geometry">
            <mxPoint x="490" y="190" as="sourcePoint" />
            <mxPoint x="540" y="140" as="targetPoint" />
          </mxGeometry>
        </mxCell>
        <mxCell id="6m7SIc87kaRz1HZ6iZ1g-6" value="" style="endArrow=none;html=1;rounded=0;" edge="1" parent="1">
          <mxGeometry width="50" height="50" relative="1" as="geometry">
            <mxPoint x="110" y="150" as="sourcePoint" />
            <mxPoint x="160" y="100" as="targetPoint" />
          </mxGeometry>
        </mxCell>
        <mxCell id="6m7SIc87kaRz1HZ6iZ1g-7" value="Admin" style="shape=umlActor;verticalLabelPosition=bottom;verticalAlign=top;html=1;outlineConnect=0;" vertex="1" parent="1">
          <mxGeometry x="90" y="150" width="30" height="60" as="geometry" />
        </mxCell>
        <mxCell id="6m7SIc87kaRz1HZ6iZ1g-8" value="Get Users List Paginated , with Search and Sort functionallity" style="ellipse;whiteSpace=wrap;html=1;" vertex="1" parent="1">
          <mxGeometry x="140" y="40" width="120" height="80" as="geometry" />
        </mxCell>
        <mxCell id="6m7SIc87kaRz1HZ6iZ1g-9" value="Facebook Login" style="ellipse;whiteSpace=wrap;html=1;" vertex="1" parent="1">
          <mxGeometry x="450" y="270" width="120" height="80" as="geometry" />
        </mxCell>
        <mxCell id="6m7SIc87kaRz1HZ6iZ1g-10" value="" style="endArrow=none;html=1;rounded=0;" edge="1" parent="1" target="6m7SIc87kaRz1HZ6iZ1g-9">
          <mxGeometry width="50" height="50" relative="1" as="geometry">
            <mxPoint x="360" y="290" as="sourcePoint" />
            <mxPoint x="410" y="240" as="targetPoint" />
          </mxGeometry>
        </mxCell>
        <mxCell id="6m7SIc87kaRz1HZ6iZ1g-11" value="" style="endArrow=none;html=1;rounded=0;entryX=0.256;entryY=0.925;entryDx=0;entryDy=0;entryPerimeter=0;" edge="1" parent="1" source="6m7SIc87kaRz1HZ6iZ1g-9" target="6m7SIc87kaRz1HZ6iZ1g-4">
          <mxGeometry width="50" height="50" relative="1" as="geometry">
            <mxPoint x="500" y="200" as="sourcePoint" />
            <mxPoint x="626" y="151" as="targetPoint" />
          </mxGeometry>
        </mxCell>
        <mxCell id="6m7SIc87kaRz1HZ6iZ1g-13" value="SERVER USE CASES DIAGRAM" style="text;html=1;align=center;verticalAlign=middle;resizable=0;points=[];autosize=1;strokeColor=#001DBC;fillColor=#0050ef;fontColor=#ffffff;" vertex="1" parent="1">
          <mxGeometry x="300" y="10" width="200" height="30" as="geometry" />
        </mxCell>
        <mxCell id="6m7SIc87kaRz1HZ6iZ1g-14" value="UI / UX&amp;nbsp;" style="text;html=1;align=center;verticalAlign=middle;resizable=0;points=[];autosize=1;strokeColor=#001DBC;fillColor=#0050ef;fontColor=#ffffff;" vertex="1" parent="1">
          <mxGeometry x="315" y="455" width="70" height="30" as="geometry" />
        </mxCell>
        <mxCell id="6m7SIc87kaRz1HZ6iZ1g-16" style="edgeStyle=orthogonalEdgeStyle;rounded=0;orthogonalLoop=1;jettySize=auto;html=1;" edge="1" parent="1" source="6m7SIc87kaRz1HZ6iZ1g-15">
          <mxGeometry relative="1" as="geometry">
            <mxPoint x="420" y="585" as="targetPoint" />
          </mxGeometry>
        </mxCell>
        <mxCell id="6m7SIc87kaRz1HZ6iZ1g-15" value="Create a map from leaflet that includes location points of open job requests" style="rounded=0;whiteSpace=wrap;html=1;" vertex="1" parent="1">
          <mxGeometry x="190" y="555" width="120" height="60" as="geometry" />
        </mxCell>
        <mxCell id="6m7SIc87kaRz1HZ6iZ1g-18" style="edgeStyle=orthogonalEdgeStyle;rounded=0;orthogonalLoop=1;jettySize=auto;html=1;" edge="1" parent="1" source="6m7SIc87kaRz1HZ6iZ1g-17">
          <mxGeometry relative="1" as="geometry">
            <mxPoint x="480" y="690" as="targetPoint" />
          </mxGeometry>
        </mxCell>
        <mxCell id="6m7SIc87kaRz1HZ6iZ1g-17" value="When you cilck on a location point open the login modal form" style="rounded=0;whiteSpace=wrap;html=1;" vertex="1" parent="1">
          <mxGeometry x="420" y="555" width="120" height="65" as="geometry" />
        </mxCell>
        <mxCell id="6m7SIc87kaRz1HZ6iZ1g-19" value="Login with Google Account and after the success response send to server that will provide you the token&amp;nbsp;" style="rounded=0;whiteSpace=wrap;html=1;" vertex="1" parent="1">
          <mxGeometry x="420" y="690" width="140" height="80" as="geometry" />
        </mxCell>
        <mxCell id="6m7SIc87kaRz1HZ6iZ1g-26" style="edgeStyle=orthogonalEdgeStyle;rounded=0;orthogonalLoop=1;jettySize=auto;html=1;" edge="1" parent="1" source="6m7SIc87kaRz1HZ6iZ1g-22">
          <mxGeometry relative="1" as="geometry">
            <mxPoint x="610" y="890" as="targetPoint" />
          </mxGeometry>
        </mxCell>
        <mxCell id="6m7SIc87kaRz1HZ6iZ1g-28" style="edgeStyle=orthogonalEdgeStyle;rounded=0;orthogonalLoop=1;jettySize=auto;html=1;" edge="1" parent="1" source="6m7SIc87kaRz1HZ6iZ1g-22">
          <mxGeometry relative="1" as="geometry">
            <mxPoint x="490" y="1010" as="targetPoint" />
          </mxGeometry>
        </mxCell>
        <mxCell id="6m7SIc87kaRz1HZ6iZ1g-22" value="" style="rhombus;whiteSpace=wrap;html=1;" vertex="1" parent="1">
          <mxGeometry x="450" y="850" width="80" height="80" as="geometry" />
        </mxCell>
        <mxCell id="6m7SIc87kaRz1HZ6iZ1g-24" style="edgeStyle=orthogonalEdgeStyle;rounded=0;orthogonalLoop=1;jettySize=auto;html=1;" edge="1" parent="1">
          <mxGeometry relative="1" as="geometry">
            <mxPoint x="489.5" y="850" as="targetPoint" />
            <mxPoint x="489.5" y="780" as="sourcePoint" />
          </mxGeometry>
        </mxCell>
        <mxCell id="6m7SIc87kaRz1HZ6iZ1g-25" value="Response" style="text;html=1;align=center;verticalAlign=middle;resizable=0;points=[];autosize=1;strokeColor=none;fillColor=none;" vertex="1" parent="1">
          <mxGeometry x="490" y="800" width="80" height="30" as="geometry" />
        </mxCell>
        <mxCell id="6m7SIc87kaRz1HZ6iZ1g-27" value="Frist Login - Register to our system" style="text;html=1;align=center;verticalAlign=middle;resizable=0;points=[];autosize=1;strokeColor=none;fillColor=none;" vertex="1" parent="1">
          <mxGeometry x="530" y="850" width="210" height="30" as="geometry" />
        </mxCell>
        <mxCell id="6m7SIc87kaRz1HZ6iZ1g-29" value="Registered User" style="text;html=1;align=center;verticalAlign=middle;resizable=0;points=[];autosize=1;strokeColor=none;fillColor=none;" vertex="1" parent="1">
          <mxGeometry x="485" y="955" width="110" height="30" as="geometry" />
        </mxCell>
        <mxCell id="6m7SIc87kaRz1HZ6iZ1g-30" value="Open a modal to fill with additional data . Like userType, AFM etc." style="whiteSpace=wrap;html=1;" vertex="1" parent="1">
          <mxGeometry x="610" y="880" width="170" height="60" as="geometry" />
        </mxCell>
        <mxCell id="6m7SIc87kaRz1HZ6iZ1g-31" value="Login Directly to our app and show the location points. Zoom in and show information about request" style="rounded=0;whiteSpace=wrap;html=1;" vertex="1" parent="1">
          <mxGeometry x="420" y="1010" width="220" height="90" as="geometry" />
        </mxCell>
        <mxCell id="6m7SIc87kaRz1HZ6iZ1g-33" value="" style="endArrow=none;html=1;rounded=0;entryX=0.5;entryY=0.5;entryDx=0;entryDy=0;entryPerimeter=0;" edge="1" parent="1" target="6m7SIc87kaRz1HZ6iZ1g-1">
          <mxGeometry width="50" height="50" relative="1" as="geometry">
            <mxPoint x="220" y="340" as="sourcePoint" />
            <mxPoint x="270" y="290" as="targetPoint" />
          </mxGeometry>
        </mxCell>
        <mxCell id="6m7SIc87kaRz1HZ6iZ1g-34" value="Get All Requests (x,y directions to get UI and present location points)&amp;nbsp;" style="ellipse;whiteSpace=wrap;html=1;" vertex="1" parent="1">
          <mxGeometry x="80" y="300" width="140" height="80" as="geometry" />
        </mxCell>
        <mxCell id="6m7SIc87kaRz1HZ6iZ1g-39" style="edgeStyle=orthogonalEdgeStyle;rounded=0;orthogonalLoop=1;jettySize=auto;html=1;" edge="1" parent="1" source="6m7SIc87kaRz1HZ6iZ1g-35" target="6m7SIc87kaRz1HZ6iZ1g-9">
          <mxGeometry relative="1" as="geometry">
            <Array as="points">
              <mxPoint x="740" y="300" />
              <mxPoint x="740" y="310" />
            </Array>
          </mxGeometry>
        </mxCell>
        <mxCell id="6m7SIc87kaRz1HZ6iZ1g-35" value="Auth" style="shape=parallelogram;perimeter=parallelogramPerimeter;whiteSpace=wrap;html=1;fixedSize=1;" vertex="1" parent="1">
          <mxGeometry x="910" y="270" width="120" height="60" as="geometry" />
        </mxCell>
        <mxCell id="6m7SIc87kaRz1HZ6iZ1g-36" value="Modules" style="text;html=1;align=center;verticalAlign=middle;resizable=0;points=[];autosize=1;strokeColor=#001DBC;fillColor=#0050ef;fontColor=#ffffff;" vertex="1" parent="1">
          <mxGeometry x="935" y="190" width="70" height="30" as="geometry" />
        </mxCell>
        <mxCell id="6m7SIc87kaRz1HZ6iZ1g-38" style="edgeStyle=orthogonalEdgeStyle;rounded=0;orthogonalLoop=1;jettySize=auto;html=1;entryX=1;entryY=1;entryDx=0;entryDy=0;" edge="1" parent="1" source="6m7SIc87kaRz1HZ6iZ1g-37" target="6m7SIc87kaRz1HZ6iZ1g-34">
          <mxGeometry relative="1" as="geometry" />
        </mxCell>
        <mxCell id="6m7SIc87kaRz1HZ6iZ1g-37" value="Request" style="shape=parallelogram;perimeter=parallelogramPerimeter;whiteSpace=wrap;html=1;fixedSize=1;" vertex="1" parent="1">
          <mxGeometry x="890" y="360" width="120" height="60" as="geometry" />
        </mxCell>
        <mxCell id="6m7SIc87kaRz1HZ6iZ1g-41" value="" style="endArrow=classic;html=1;rounded=0;" edge="1" parent="1">
          <mxGeometry width="50" height="50" relative="1" as="geometry">
            <mxPoint x="390" y="320" as="sourcePoint" />
            <mxPoint x="440" y="270" as="targetPoint" />
          </mxGeometry>
        </mxCell>
        <mxCell id="6m7SIc87kaRz1HZ6iZ1g-43" value="" style="endArrow=classic;html=1;rounded=0;exitX=0;exitY=0.5;exitDx=0;exitDy=0;" edge="1" parent="1" source="6m7SIc87kaRz1HZ6iZ1g-35" target="6m7SIc87kaRz1HZ6iZ1g-3">
          <mxGeometry width="50" height="50" relative="1" as="geometry">
            <mxPoint x="810" y="260" as="sourcePoint" />
            <mxPoint x="860" y="210" as="targetPoint" />
          </mxGeometry>
        </mxCell>
      </root>
    </mxGraphModel>
  </diagram>
</mxfile>
